<svg width="50" height="50" viewBox="0 0 50 50" fill="none" xmlns="http://www.w3.org/2000/svg">
<g id="vuesax/bold/call">
<g id="vuesax/bold/call_2">
<g id="call">
<path id="Vector" d="M23.0209 31.1457L19.1667 34.9998C18.3542 35.8123 17.0626 35.8123 16.2292 35.0207C16.0001 34.7915 15.7709 34.5832 15.5417 34.354C13.3959 32.1873 11.4584 29.9165 9.72925 27.5415C8.02092 25.1665 6.64592 22.7915 5.64591 20.4373C4.66675 18.0623 4.16675 15.7915 4.16675 13.6248C4.16675 12.2082 4.41675 10.854 4.91675 9.604C5.41675 8.33317 6.20841 7.1665 7.31258 6.12484C8.64592 4.81234 10.1042 4.1665 11.6459 4.1665C12.2292 4.1665 12.8126 4.2915 13.3334 4.5415C13.8751 4.7915 14.3542 5.1665 14.7292 5.70817L19.5626 12.5207C19.9376 13.0415 20.2084 13.5207 20.3959 13.979C20.5834 14.4165 20.6876 14.854 20.6876 15.2498C20.6876 15.7498 20.5417 16.2498 20.2501 16.729C19.9792 17.2082 19.5834 17.7082 19.0834 18.2082L17.5001 19.854C17.2709 20.0832 17.1667 20.354 17.1667 20.6873C17.1667 20.854 17.1876 20.9998 17.2292 21.1665C17.2917 21.3332 17.3542 21.4582 17.3959 21.5832C17.7709 22.2707 18.4167 23.1665 19.3334 24.2498C20.2709 25.3332 21.2709 26.4373 22.3542 27.5415C22.5626 27.7498 22.7917 27.9582 23.0001 28.1665C23.8334 28.979 23.8542 30.3123 23.0209 31.1457Z" fill="white"/>
<path id="Vector_2" d="M45.7708 38.1875C45.7708 38.7708 45.6667 39.375 45.4583 39.9583C45.3958 40.125 45.3333 40.2917 45.25 40.4583C44.8958 41.2083 44.4375 41.9167 43.8333 42.5833C42.8125 43.7083 41.6875 44.5208 40.4167 45.0417C40.3958 45.0417 40.375 45.0625 40.3542 45.0625C39.125 45.5625 37.7917 45.8333 36.3542 45.8333C34.2292 45.8333 31.9583 45.3333 29.5625 44.3125C27.1667 43.2917 24.7708 41.9167 22.3958 40.1875C21.5833 39.5833 20.7708 38.9792 20 38.3333L26.8125 31.5208C27.3958 31.9583 27.9167 32.2917 28.3542 32.5208C28.4583 32.5625 28.5833 32.625 28.7292 32.6875C28.8958 32.75 29.0625 32.7708 29.25 32.7708C29.6042 32.7708 29.875 32.6458 30.1042 32.4167L31.6875 30.8542C32.2083 30.3333 32.7083 29.9375 33.1875 29.6875C33.6667 29.3958 34.1458 29.25 34.6667 29.25C35.0625 29.25 35.4792 29.3333 35.9375 29.5208C36.3958 29.7083 36.875 29.9792 37.3958 30.3333L44.2917 35.2292C44.8333 35.6042 45.2083 36.0417 45.4375 36.5625C45.6458 37.0833 45.7708 37.6042 45.7708 38.1875Z" fill="white"/>
</g>
</g>
</g>
</svg>
