<svg width="50" height="50" viewBox="0 0 50 50" fill="none" xmlns="http://www.w3.org/2000/svg">
<g id="vuesax/bold/sms">
<g id="vuesax/bold/sms_2">
<g id="sms">
<path id="Vector" d="M35.4167 7.2915H14.5834C8.33341 7.2915 4.16675 10.4165 4.16675 17.7082V32.2915C4.16675 39.5832 8.33341 42.7082 14.5834 42.7082H35.4167C41.6667 42.7082 45.8334 39.5832 45.8334 32.2915V17.7082C45.8334 10.4165 41.6667 7.2915 35.4167 7.2915ZM36.3959 19.979L29.8751 25.1873C28.5001 26.2915 26.7501 26.8332 25.0001 26.8332C23.2501 26.8332 21.4792 26.2915 20.1251 25.1873L13.6042 19.979C12.9376 19.4373 12.8334 18.4373 13.3542 17.7707C13.8959 17.104 14.8751 16.979 15.5417 17.5207L22.0626 22.729C23.6459 23.9998 26.3334 23.9998 27.9167 22.729L34.4376 17.5207C35.1042 16.979 36.1042 17.0832 36.6251 17.7707C37.1667 18.4373 37.0626 19.4373 36.3959 19.979Z" fill="white"/>
</g>
</g>
</g>
</svg>
