<svg width="36" height="36" viewBox="0 0 36 36" fill="none" xmlns="http://www.w3.org/2000/svg">
<g id="vuesax/bold/shield-cross">
<g id="vuesax/bold/shield-cross_2">
<path id="Vector" d="M27.81 6.18001L19.56 3.09001C18.705 2.77501 17.31 2.77501 16.455 3.09001L8.20495 6.18001C6.61495 6.78001 5.32495 8.64001 5.32495 10.335V22.485C5.32495 23.7 6.11995 25.305 7.09495 26.025L15.3449 32.19C16.8 33.285 19.185 33.285 20.64 32.19L28.89 26.025C29.865 25.29 30.66 23.7 30.66 22.485V10.335C30.675 8.64001 29.385 6.78001 27.81 6.18001ZM22.02 20.955C21.795 21.18 21.51 21.285 21.225 21.285C20.9399 21.285 20.655 21.18 20.43 20.955L18.045 18.57L15.585 21.03C15.36 21.255 15.075 21.36 14.79 21.36C14.505 21.36 14.22 21.255 13.995 21.03C13.56 20.595 13.56 19.875 13.995 19.44L16.455 16.98L14.055 14.58C13.62 14.145 13.62 13.425 14.055 12.99C14.49 12.555 15.21 12.555 15.645 12.99L18.03 15.375L20.3549 13.05C20.79 12.615 21.51 12.615 21.945 13.05C22.38 13.485 22.38 14.205 21.945 14.64L19.62 16.965L22.005 19.35C22.455 19.8 22.455 20.505 22.02 20.955Z" fill="#636363"/>
</g>
</g>
</svg>
