<svg width="36" height="36" viewBox="0 0 36 36" fill="none" xmlns="http://www.w3.org/2000/svg">
<g id="vuesax/bold/shield-tick">
<g id="vuesax/bold/shield-tick_2">
<path id="Vector" d="M27.81 6.18001L19.56 3.09001C18.705 2.77501 17.31 2.77501 16.455 3.09001L8.20495 6.18001C6.61495 6.78001 5.32495 8.64001 5.32495 10.335V22.485C5.32495 23.7 6.11995 25.305 7.09495 26.025L15.3449 32.19C16.8 33.285 19.185 33.285 20.64 32.19L28.89 26.025C29.865 25.29 30.66 23.7 30.66 22.485V10.335C30.675 8.64001 29.385 6.78001 27.81 6.18001ZM23.2199 14.58L16.77 21.03C16.545 21.255 16.26 21.36 15.975 21.36C15.6899 21.36 15.405 21.255 15.18 21.03L12.78 18.6C12.345 18.165 12.345 17.445 12.78 17.01C13.215 16.575 13.935 16.575 14.37 17.01L15.99 18.63L21.645 12.975C22.08 12.54 22.7999 12.54 23.235 12.975C23.67 13.41 23.67 14.145 23.2199 14.58Z" fill="#000810"/>
</g>
</g>
</svg>
